<svg xmlns="http://www.w3.org/2000/svg" viewBox="0 0 220 560">
<defs>
 <pattern id="v" width="44" height="44" patternUnits="userSpaceOnUse">
  <rect width="44" height="44" fill="#07182b"/>
  <path d="M22 1 43 22 22 43 1 22Z" fill="none" stroke="#eefbff" stroke-width="3"/>
  <path d="M22 7 37 22 22 37 7 22Z" fill="none" stroke="#159dff" stroke-width="4"/>
  <path d="M22 12 32 22 22 32 12 22Z" fill="none" stroke="#8ce8ff" stroke-width="2"/>
  <rect x="18" y="18" width="8" height="8" transform="rotate(45 22 22)" fill="#0a83ed"/>
 </pattern>
 <filter id="g" x="-40%" y="-20%" width="180%" height="140%"><feGaussianBlur stdDeviation="5" result="b"/><feMerge><feMergeNode in="b"/><feMergeNode in="SourceGraphic"/></feMerge></filter>
 <linearGradient id="fade" x1="0" y1="0" x2="0" y2="1"><stop offset=".78" stop-color="white"/><stop offset="1" stop-color="black"/></linearGradient>
 <mask id="m"><rect width="220" height="560" fill="url(#fade)"/></mask>
</defs>
<g filter="url(#g)" mask="url(#m)">
 <rect x="20" y="-10" width="145" height="500" fill="url(#v)" stroke="#95e7ff" stroke-opacity=".7"/>
 <path d="M105 420 C170 454 205 470 258 548 C167 523 112 496 52 456Z" fill="url(#v)" opacity=".9"/>
 <g fill="#f6fdff">
  <rect x="10" y="86" width="12" height="12"/><rect x="157" y="122" width="10" height="10"/><rect x="4" y="210" width="9" height="9"/><rect x="165" y="266" width="12" height="12"/>
 </g>
 <g fill="#159dff"><rect x="4" y="132" width="9" height="9"/><rect x="161" y="180" width="11" height="11"/><rect x="8" y="320" width="10" height="10"/></g>
</g>
</svg>